<?xml version="1.0" standalone="no"?>
<!DOCTYPE svg PUBLIC "-//W3C//DTD SVG 20010904//EN"
 "http://www.w3.org/TR/2001/REC-SVG-20010904/DTD/svg10.dtd">
<svg version="1.0" xmlns="http://www.w3.org/2000/svg"
 width="240.000000pt" height="240.000000pt" viewBox="0 0 240.000000 240.000000"
 preserveAspectRatio="xMidYMid meet">
<metadata>
Created by potrace 1.16, written by Peter Selinger 2001-2019
</metadata>
<g transform="translate(0.000000,240.000000) scale(0.100000,-0.100000)"
fill="#000000" stroke="none">
<path d="M335 1730 c-11 -4 -33 -22 -50 -40 l-30 -31 -5 -175 c-5 -161 -7
-177 -25 -190 -11 -8 -30 -17 -42 -21 -22 -5 -23 -10 -23 -99 l0 -94 34 -14
c18 -8 37 -20 42 -27 5 -8 11 -89 14 -181 l5 -168 38 -37 37 -38 93 0 92 0 3
88 c3 95 -5 117 -42 117 -40 0 -46 18 -46 135 0 129 -11 176 -47 205 l-27 21
23 16 c40 27 51 72 51 201 0 127 4 137 50 144 24 3 25 5 28 101 l3 97 -78 -1
c-43 0 -87 -4 -98 -9z"/>
<path d="M1898 1730 c-1 -5 -2 -50 0 -100 l3 -90 28 0 c16 0 33 -6 39 -13 6
-6 12 -74 14 -150 l3 -139 33 -29 32 -29 -32 -29 -33 -29 -3 -139 c-2 -76 -9
-144 -14 -150 -6 -7 -21 -13 -33 -13 -38 0 -46 -21 -43 -117 l3 -88 92 0 c84
0 94 2 119 25 46 43 54 76 54 238 0 141 1 150 23 169 12 12 31 23 42 25 18 3
20 12 23 99 3 96 3 97 -23 103 -14 4 -34 15 -45 26 -18 18 -20 34 -20 173 0
172 -9 204 -69 244 -28 19 -48 23 -112 23 -42 0 -79 -4 -81 -10z"/>
<path d="M720 1618 l0 -83 329 -335 329 -335 -54 -55 c-30 -31 -54 -60 -54
-66 0 -13 63 -74 76 -74 5 0 39 29 74 65 l65 65 95 -95 c111 -110 130 -117
186 -61 56 56 49 75 -61 186 l-95 95 65 65 c36 35 65 69 65 75 0 6 -17 28 -38
48 l-38 37 -54 -55 c-30 -30 -59 -55 -65 -55 -5 0 -156 149 -334 330 l-323
330 -84 0 -84 0 0 -82z"/>
<path d="M1390 1565 l-135 -135 83 -82 82 -83 135 135 135 135 0 82 0 83 -83
0 -82 0 -135 -135z"/>
<path d="M927 1095 c-31 -30 -60 -55 -65 -55 -4 0 -30 23 -57 50 -27 28 -54
50 -60 50 -14 0 -75 -62 -75 -76 0 -5 27 -36 60 -69 33 -33 60 -64 60 -70 0
-6 -40 -51 -90 -100 -105 -105 -113 -129 -57 -183 55 -54 78 -47 182 58 49 50
94 90 100 90 6 0 37 -27 70 -60 33 -33 64 -60 70 -60 14 0 75 62 75 76 0 5
-25 34 -55 64 l-55 54 55 56 c30 31 55 62 55 70 0 14 -138 160 -150 160 -3 0
-32 -25 -63 -55z"/>
</g>
</svg>
