<?xml version="1.0" encoding="UTF-8"?>
<svg width="24px" height="24px" viewBox="0 0 24 24" version="1.1" xmlns="http://www.w3.org/2000/svg" xmlns:xlink="http://www.w3.org/1999/xlink">
    <!-- Generator: Sketch 59.1 (86144) - https://sketch.com -->
    <title>ic-github</title>
    <desc>Created with Sketch.</desc>
    <g id="ic-github" stroke="none" stroke-width="1" fill="none" fill-rule="evenodd">
        <path d="M11.5244552,-2.48689958e-14 C5.85877756,-0.00175285266 1.03293865,4.28813494 0.143782065,10.1167516 C-0.745374521,15.9453682 2.56613956,21.5822121 7.9532552,23.4100005 L8.2316552,23.4100005 C8.50641134,23.427756 8.77526433,23.3217922 8.96991976,23.1190261 C9.1645752,22.91626 9.26630048,22.6362048 9.2492552,22.3500005 L9.2492552,22.1400005 C9.2492552,21.9700005 9.2492552,21.7400005 9.2492552,21.0500005 C9.23022341,20.9176705 9.16106698,20.7988079 9.0572552,20.7200005 C8.94430785,20.6248266 8.79605768,20.5880582 8.6540552,20.6200005 C6.0812552,21.2000005 5.5340552,19.5200005 5.4956552,19.4100005 C5.17348867,18.5211176 4.59712569,17.7566827 3.8444552,17.2200005 C3.79935937,17.1793777 3.75120459,17.1425928 3.7004552,17.1100005 C3.81201467,17.0474405 3.93961815,17.0229552 4.0652552,17.0400005 C4.55605177,17.111089 4.97509558,17.4451094 5.1692552,17.9200005 C5.94111498,19.3199547 7.6381263,19.8325935 9.0092552,19.0800005 C9.1529355,19.0145738 9.25687743,18.8801661 9.2876552,18.7200005 C9.32441202,18.2574415 9.51446953,17.8226001 9.8252552,17.4900005 C9.96617604,17.359641 10.0208206,17.1554396 9.96495897,16.9679411 C9.90909735,16.7804426 9.7530678,16.6443471 9.5660552,16.6200005 C7.2908552,16.3500005 4.9676552,15.5200005 4.9676552,11.4300005 C4.94847672,10.402881 5.30940992,9.40745018 5.9756552,8.65000054 C6.10093588,8.50586146 6.1346356,8.29913862 6.0620552,8.12000054 C5.79525164,7.34353088 5.79864925,6.49412728 6.0716552,5.72000054 C6.95852962,5.88376149 7.79094929,6.27946363 8.4908552,6.87000054 C8.60799114,6.95612076 8.75643728,6.98189266 8.8940552,6.94000054 C9.75160892,6.69768259 10.6359154,6.57329336 11.5244552,6.57000054 C12.4163167,6.57078133 13.3041113,6.69520709 14.1644552,6.94000054 C14.2991247,6.97870679 14.4433431,6.9530582 14.5580552,6.87000054 C15.2590635,6.28132033 16.0910048,5.88584555 16.9772552,5.72000054 C17.238595,6.48998032 17.238595,7.33002076 16.9772552,8.10000054 C16.9046748,8.27913862 16.9383745,8.48586146 17.0636552,8.63000054 C17.7230118,9.37987745 18.0834412,10.3631919 18.0716552,11.3800005 C18.0716552,15.4700005 15.7388552,16.2900005 13.4540552,16.5600005 C13.2624802,16.5807825 13.1013842,16.7188387 13.0448871,16.9106499 C12.9883899,17.1024612 13.0474348,17.3108749 13.1948552,17.4400005 C13.6252224,17.9027046 13.8392548,18.5386615 13.7804552,19.1800005 L13.7804552,22.3600005 C13.7708337,22.6765556 13.8976036,22.9810086 14.1260552,23.1900005 C14.4173978,23.4172221 14.7946865,23.4876671 15.1436552,23.3800005 C20.4931645,21.5157823 23.7598898,15.8906678 22.8618954,10.0896317 C21.963901,4.28859567 17.1653585,0.0181851899 11.5244552,-2.48689958e-14 Z" id="Shape" fill="#A4B1CD" fill-rule="nonzero"></path>
    </g>
</svg>